<?xml version="1.0" standalone="no"?>
<svg xmlns:xlink="http://www.w3.org/1999/xlink" id="wave" style="transform:rotate(0deg); transition: 0.3s" viewBox="0 0 1440 490" version="1.1" xmlns="http://www.w3.org/2000/svg"><defs><linearGradient id="sw-gradient-0" x1="0" x2="0" y1="1" y2="0"><stop stop-color="rgba(135, 206, 235, 1)" offset="0%"/><stop stop-color="rgba(64, 224, 208, 1)" offset="100%"/></linearGradient></defs><path style="transform:translate(0, 0px); opacity:1" fill="url(#sw-gradient-0)" d="M0,0L60,8.2C120,16,240,33,360,89.8C480,147,600,245,720,269.5C840,294,960,245,1080,245C1200,245,1320,294,1440,277.7C1560,261,1680,180,1800,196C1920,212,2040,327,2160,326.7C2280,327,2400,212,2520,138.8C2640,65,2760,33,2880,40.8C3000,49,3120,98,3240,122.5C3360,147,3480,147,3600,122.5C3720,98,3840,49,3960,40.8C4080,33,4200,65,4320,138.8C4440,212,4560,327,4680,367.5C4800,408,4920,376,5040,302.2C5160,229,5280,114,5400,57.2C5520,0,5640,0,5760,49C5880,98,6000,196,6120,212.3C6240,229,6360,163,6480,130.7C6600,98,6720,98,6840,155.2C6960,212,7080,327,7200,351.2C7320,376,7440,310,7560,277.7C7680,245,7800,245,7920,245C8040,245,8160,245,8280,261.3C8400,278,8520,310,8580,326.7L8640,343L8640,490L8580,490C8520,490,8400,490,8280,490C8160,490,8040,490,7920,490C7800,490,7680,490,7560,490C7440,490,7320,490,7200,490C7080,490,6960,490,6840,490C6720,490,6600,490,6480,490C6360,490,6240,490,6120,490C6000,490,5880,490,5760,490C5640,490,5520,490,5400,490C5280,490,5160,490,5040,490C4920,490,4800,490,4680,490C4560,490,4440,490,4320,490C4200,490,4080,490,3960,490C3840,490,3720,490,3600,490C3480,490,3360,490,3240,490C3120,490,3000,490,2880,490C2760,490,2640,490,2520,490C2400,490,2280,490,2160,490C2040,490,1920,490,1800,490C1680,490,1560,490,1440,490C1320,490,1200,490,1080,490C960,490,840,490,720,490C600,490,480,490,360,490C240,490,120,490,60,490L0,490Z"/><defs><linearGradient id="sw-gradient-1" x1="0" x2="0" y1="1" y2="0"><stop stop-color="rgba(230, 230, 250, 1)" offset="0%"/><stop stop-color="rgba(135, 206, 235, 1)" offset="100%"/></linearGradient></defs><path style="transform:translate(0, 50px); opacity:0.9" fill="url(#sw-gradient-1)" d="M0,392L60,383.8C120,376,240,359,360,359.3C480,359,600,376,720,343C840,310,960,229,1080,171.5C1200,114,1320,82,1440,81.7C1560,82,1680,114,1800,163.3C1920,212,2040,278,2160,261.3C2280,245,2400,147,2520,130.7C2640,114,2760,180,2880,212.3C3000,245,3120,245,3240,277.7C3360,310,3480,376,3600,408.3C3720,441,3840,441,3960,367.5C4080,294,4200,147,4320,138.8C4440,131,4560,261,4680,261.3C4800,261,4920,131,5040,122.5C5160,114,5280,229,5400,245C5520,261,5640,180,5760,130.7C5880,82,6000,65,6120,57.2C6240,49,6360,49,6480,65.3C6600,82,6720,114,6840,138.8C6960,163,7080,180,7200,171.5C7320,163,7440,131,7560,114.3C7680,98,7800,98,7920,122.5C8040,147,8160,196,8280,204.2C8400,212,8520,180,8580,163.3L8640,147L8640,490L8580,490C8520,490,8400,490,8280,490C8160,490,8040,490,7920,490C7800,490,7680,490,7560,490C7440,490,7320,490,7200,490C7080,490,6960,490,6840,490C6720,490,6600,490,6480,490C6360,490,6240,490,6120,490C6000,490,5880,490,5760,490C5640,490,5520,490,5400,490C5280,490,5160,490,5040,490C4920,490,4800,490,4680,490C4560,490,4440,490,4320,490C4200,490,4080,490,3960,490C3840,490,3720,490,3600,490C3480,490,3360,490,3240,490C3120,490,3000,490,2880,490C2760,490,2640,490,2520,490C2400,490,2280,490,2160,490C2040,490,1920,490,1800,490C1680,490,1560,490,1440,490C1320,490,1200,490,1080,490C960,490,840,490,720,490C600,490,480,490,360,490C240,490,120,490,60,490L0,490Z"/><defs><linearGradient id="sw-gradient-2" x1="0" x2="0" y1="1" y2="0"><stop stop-color="rgba(64, 224, 208, 1)" offset="0%"/><stop stop-color="rgba(175, 238, 238, 1)" offset="100%"/></linearGradient></defs><path style="transform:translate(0, 100px); opacity:0.8" fill="url(#sw-gradient-2)" d="M0,98L60,147C120,196,240,294,360,310.3C480,327,600,261,720,212.3C840,163,960,131,1080,171.5C1200,212,1320,327,1440,359.3C1560,392,1680,343,1800,310.3C1920,278,2040,261,2160,228.7C2280,196,2400,147,2520,130.7C2640,114,2760,131,2880,138.8C3000,147,3120,147,3240,179.7C3360,212,3480,278,3600,277.7C3720,278,3840,212,3960,179.7C4080,147,4200,147,4320,163.3C4440,180,4560,212,4680,220.5C4800,229,4920,212,5040,212.3C5160,212,5280,229,5400,220.5C5520,212,5640,180,5760,196C5880,212,6000,278,6120,326.7C6240,376,6360,408,6480,351.2C6600,294,6720,147,6840,73.5C6960,0,7080,0,7200,73.5C7320,147,7440,294,7560,318.5C7680,343,7800,245,7920,196C8040,147,8160,147,8280,155.2C8400,163,8520,180,8580,187.8L8640,196L8640,490L8580,490C8520,490,8400,490,8280,490C8160,490,8040,490,7920,490C7800,490,7680,490,7560,490C7440,490,7320,490,7200,490C7080,490,6960,490,6840,490C6720,490,6600,490,6480,490C6360,490,6240,490,6120,490C6000,490,5880,490,5760,490C5640,490,5520,490,5400,490C5280,490,5160,490,5040,490C4920,490,4800,490,4680,490C4560,490,4440,490,4320,490C4200,490,4080,490,3960,490C3840,490,3720,490,3600,490C3480,490,3360,490,3240,490C3120,490,3000,490,2880,490C2760,490,2640,490,2520,490C2400,490,2280,490,2160,490C2040,490,1920,490,1800,490C1680,490,1560,490,1440,490C1320,490,1200,490,1080,490C960,490,840,490,720,490C600,490,480,490,360,490C240,490,120,490,60,490L0,490Z"/></svg>